<svg preserveAspectRatio="none" width="100%" height="100%" overflow="visible" style="display: block;" viewBox="0 0 16 16" fill="none" xmlns="http://www.w3.org/2000/svg">
<g id="Icon">
<path id="Vector" fill-rule="evenodd" clip-rule="evenodd" d="M3 2C1.89543 2 1 2.89543 1 4V12C1 13.1046 1.89543 14 3 14H13C14.1046 14 15 13.1046 15 12V4C15 2.89543 14.1046 2 13 2H3ZM3.375 4.10244C3.01628 3.89533 2.55759 4.01824 2.35048 4.37696C2.14337 4.73568 2.26628 5.19437 2.625 5.40148L6.625 7.71088C7.47586 8.20212 8.52415 8.20212 9.375 7.71088L13.375 5.40148C13.7337 5.19437 13.8566 4.73568 13.6495 4.37696C13.4424 4.01824 12.9837 3.89533 12.625 4.10244L8.625 6.41184C8.23825 6.63513 7.76175 6.63513 7.375 6.41184L3.375 4.10244Z" fill="var(--fill-0, #222222)"/>
</g>
</svg>
