<svg width="12" height="15" viewBox="0 0 12 15" fill="none" xmlns="http://www.w3.org/2000/svg">
<path d="M11 0H1C0.45 0 0 0.45 0 1V10C0 10.55 0.45 11 1 11H8.25L11.14 13.89C11.46 14.2 11.99 13.98 11.99 13.54V10V1C11.99 0.45 11.54 0 10.99 0H11ZM9.55 6.85C8.56 7.68 7.3 8.14 6 8.14C4.7 8.14 3.45 7.68 2.45 6.85C2.09 6.55 2.04 6.01 2.34 5.65C2.64 5.29 3.17999 5.24 3.53999 5.54C4.91999 6.69 7.08 6.69 8.45 5.54C8.81 5.24 9.34999 5.28 9.64999 5.65C9.94999 6.01 9.89999 6.55 9.53999 6.85H9.55Z" fill="#222222"/>
</svg>
