<svg preserveAspectRatio="none" width="100%" height="100%" overflow="visible" style="display: block;" viewBox="0 0 16 16" fill="none" xmlns="http://www.w3.org/2000/svg">
<g id="Icon">
<path id="Vector" d="M11.4 3.4C11.07 3.07 10.53 3.07 10.2 3.4C9.87 3.73 9.87 4.27001 10.2 4.60001L13.6 8L10.2 11.4C9.87 11.73 9.87 12.27 10.2 12.6C10.37 12.77 10.58 12.85 10.8 12.85C11.02 12.85 11.24 12.77 11.4 12.6L16 8L11.4 3.4ZM2.4 8L5.8 4.60001C6.13 4.27001 6.13 3.73 5.8 3.4C5.47 3.07 4.93 3.07 4.6 3.4L0 8L4.6 12.6C4.77 12.77 4.98 12.85 5.2 12.85C5.42 12.85 5.64 12.77 5.8 12.6C6.13 12.27 6.13 11.73 5.8 11.4L2.4 8ZM6.25 6.75C5.56 6.75 5 7.31 5 8C5 8.69 5.56 9.25 6.25 9.25C6.94 9.25 7.5 8.69 7.5 8C7.5 7.31 6.94 6.75 6.25 6.75ZM11 8C11 7.31 10.44 6.75 9.75 6.75C9.06 6.75 8.5 7.31 8.5 8C8.5 8.69 9.06 9.25 9.75 9.25C10.44 9.25 11 8.69 11 8Z" fill="var(--fill-0, #1A1A1A)"/>
</g>
</svg>
