<svg width="13" height="11" viewBox="0 0 13 11" fill="none" xmlns="http://www.w3.org/2000/svg">
<path d="M12.5 4.4H4.5V6.1H12.5V4.4ZM4.5 10.25H12.5V8.55H4.5V10.25ZM4.5 0.25V1.95H12.5V0.25H4.5ZM1.25 4C0.56 4 0 4.56 0 5.25C0 5.94 0.56 6.5 1.25 6.5C1.94 6.5 2.5 5.94 2.5 5.25C2.5 4.56 1.94 4 1.25 4ZM1.25 8C0.56 8 0 8.56 0 9.25C0 9.94 0.56 10.5 1.25 10.5C1.94 10.5 2.5 9.94 2.5 9.25C2.5 8.56 1.94 8 1.25 8ZM1.25 0C0.56 0 0 0.56 0 1.25C0 1.94 0.56 2.5 1.25 2.5C1.94 2.5 2.5 1.94 2.5 1.25C2.5 0.56 1.94 0 1.25 0Z" fill="#222222"/>
</svg>
