<svg width="16" height="15" viewBox="0 0 16 15" fill="none" xmlns="http://www.w3.org/2000/svg">
<path d="M9.75 4.76C11.06 4.76 12.13 3.70001 12.13 2.38C12.13 1.06 11.07 0 9.75 0C8.43 0 7.37 1.06 7.37 2.38C7.37 3.70001 8.43 4.76 9.75 4.76ZM9.75 6.51C8.32 6.51 7 7.00001 5.94 7.81001L9.04001 10.91L7.19 12.76H16C16 9.31 13.2 6.51 9.75 6.51ZM2.47 7.66C2.14 7.99 2.14 8.53001 2.47 8.86001L3.67001 10.06H0V11.76H3.67001L2.47 12.96C2.14 13.29 2.14 13.83 2.47 14.16C2.64 14.33 2.85001 14.41 3.07001 14.41C3.29001 14.41 3.51001 14.33 3.67001 14.16L6.92001 10.91L3.67001 7.66C3.34001 7.33 2.8 7.33 2.47 7.66Z" fill="#222222"/>
</svg>
