<svg preserveAspectRatio="none" width="100%" height="100%" overflow="visible" style="display: block;" viewBox="0 0 16 16" fill="none" xmlns="http://www.w3.org/2000/svg">
<g id="Icon">
<path id="Vector" d="M8 1.25C4.27 1.25 1.25 4.27 1.25 8C1.25 11.73 4.27 14.75 8 14.75C11.73 14.75 14.75 11.73 14.75 8C14.75 4.27 11.73 1.25 8 1.25ZM8 12.67C7.36 12.67 6.85001 12.16 6.85001 11.52C6.85001 10.88 7.36 10.37 8 10.37C8.64 10.37 9.14999 10.88 9.14999 11.52C9.14999 12.16 8.64 12.67 8 12.67ZM9.14999 8.42L8.85001 8.59C8.85001 9.06 8.47 9.44 8 9.44C7.53 9.44 7.14999 9.06 7.14999 8.59V8.05C7.14999 7.73 7.33 7.44 7.61 7.29L8.39 6.89C8.71 6.73 8.91 6.42 8.91 6.08C8.91 5.59 8.50999 5.18 8.00999 5.18C7.60999 5.18 7.24999 5.45 7.14999 5.84C7.02999 6.29 6.56 6.56 6.11 6.44C5.66 6.32 5.38999 5.85 5.50999 5.4C5.81999 4.27 6.84999 3.49 8.00999 3.49C9.43999 3.49 10.6 4.65 10.6 6.08C10.6 7.08 10.04 7.97 9.14 8.41L9.14999 8.42Z" fill="var(--fill-0, #1A1A1A)"/>
</g>
</svg>
