<svg preserveAspectRatio="none" width="100%" height="100%" overflow="visible" style="display: block;" viewBox="0 0 16 16" fill="none" xmlns="http://www.w3.org/2000/svg">
<g id="Icon">
<path id="Vector" d="M13.3 2H9.7C9.31 2 9 2.32 9 2.7V6.3C9 6.69 9.31 7 9.7 7H13.3C13.68 7 14 6.68 14 6.3V2.7C14 2.31 13.68 2 13.3 2ZM6.3 2H2.7C2.31 2 2 2.32 2 2.7V6.3C2 6.69 2.31 7 2.7 7H6.3C6.68 7 7 6.68 7 6.3V2.7C7 2.31 6.68 2 6.3 2ZM13.3 9H9.7C9.31 9 9 9.32 9 9.7V13.3C9 13.69 9.31 14 9.7 14H13.3C13.68 14 14 13.68 14 13.3V9.7C14 9.31 13.68 9 13.3 9ZM6.3 9H2.7C2.31 9 2 9.32 2 9.7V13.3C2 13.69 2.31 14 2.7 14H6.3C6.68 14 7 13.68 7 13.3V9.7C7 9.31 6.68 9 6.3 9Z" fill="var(--fill-0, #1A1A1A)"/>
</g>
</svg>
