<svg preserveAspectRatio="none" width="100%" height="100%" overflow="visible" style="display: block;" viewBox="0 0 16 16" fill="none" xmlns="http://www.w3.org/2000/svg">
<g id="Icon">
<path id="Vector" d="M10.65 3C10.65 1.9 9.75 1 8.65 1H3C1.9 1 1 1.9 1 3C1 4.1 1.9 5 3 5H8.65C9.75 5 10.65 4.1 10.65 3ZM11.84 7.54999C11.51 7.21999 10.97 7.21999 10.64 7.54999C10.31 7.87999 10.31 8.42 10.64 8.75L12.19 10.3H7.85C7.22 10.3 6.7 9.77999 6.7 9.14999V7H5V9.14999C5 10.72 6.28 12 7.85 12H12.19L10.64 13.55C10.31 13.88 10.31 14.42 10.64 14.75C10.81 14.92 11.02 15 11.24 15C11.46 15 11.68 14.92 11.84 14.75L15.44 11.15L11.84 7.54999Z" fill="var(--fill-0, #1A1A1A)"/>
</g>
</svg>
