<svg width="16" height="16" viewBox="0 0 16 16" fill="none" xmlns="http://www.w3.org/2000/svg">
<g id="Mark" clip-path="url(#clip0_0_29)">
<path id="Vector" d="M7.99617 15.9984C6.0254 15.9984 4.05462 16.0009 2.08385 15.9979C1.08736 15.9964 0.32156 15.4502 0.0742039 14.5632C0.0257422 14.3891 0.00353065 14.2018 0.00353065 14.0206C-0.00101263 9.98714 -3.01012e-06 5.95372 -3.01012e-06 1.9203C-3.01012e-06 0.954599 0.822835 0.0787554 1.78904 0.0151495C1.89152 0.008587 1.995 0.00656777 2.09748 0.00656777C6.01025 0.00505334 9.92201 0.00656777 13.8343 5.25244e-06C14.4406 -0.00100437 14.9782 0.143371 15.4234 0.576497C15.8207 0.962676 16.0115 1.43518 16.012 1.97886C16.0166 6.01985 16.0191 10.0608 16.0125 14.1013C16.011 15.0721 15.165 15.9555 14.1942 15.9762C12.7903 16.0065 11.3855 15.9939 9.98108 15.9979C9.31927 15.9999 8.65747 15.9979 7.99566 15.9984H7.99617ZM7.99314 13.856C8.05927 13.856 8.1249 13.856 8.19103 13.856C9.29403 13.8515 10.3708 13.6803 11.4152 13.3244C12.1901 13.0609 12.9312 12.7227 13.5819 12.2184C13.7066 12.122 13.8191 11.9695 13.8646 11.8206C13.9282 11.6111 13.8414 11.4147 13.6445 11.2906C13.4188 11.1482 13.1967 11.1729 12.9877 11.3269C12.3789 11.7747 11.7095 12.1028 10.9927 12.338C9.81853 12.7237 8.61305 12.8343 7.38283 12.7656C5.78612 12.6768 4.30703 12.2472 2.99099 11.3153C2.92688 11.2699 2.85166 11.231 2.77594 11.2133C2.52707 11.1543 2.28173 11.2784 2.1732 11.5066C2.05406 11.7575 2.1212 11.9998 2.38976 12.1957C4.05967 13.4123 5.96936 13.8318 7.99314 13.857V13.856ZM8.53985 6.5181H8.53884C8.53884 5.32069 8.53884 4.12328 8.53833 2.92588C8.53833 2.81583 8.53581 2.70528 8.5247 2.59573C8.48937 2.24388 8.14307 2.03539 7.81545 2.16463C7.56658 2.26256 7.46309 2.4347 7.46309 2.7608C7.46309 5.24345 7.46309 7.72661 7.4641 10.2093C7.4641 10.3047 7.46612 10.4011 7.48227 10.4945C7.52114 10.7211 7.70388 10.8882 7.93004 10.916C8.16427 10.9448 8.38538 10.8398 8.4722 10.6262C8.52016 10.5081 8.53682 10.3703 8.53732 10.2416C8.54187 9.00024 8.53985 7.75892 8.53985 6.51709V6.5181ZM5.86739 6.49538C5.86739 5.32069 5.86941 4.1455 5.86638 2.97081C5.86537 2.62854 5.64376 2.39482 5.33482 2.39229C5.02133 2.38977 4.79568 2.61643 4.79518 2.96121C4.79265 5.3111 4.79316 7.66098 4.79871 10.0109C4.79871 10.1229 4.83203 10.2466 4.88705 10.3435C5.0072 10.5535 5.25455 10.6363 5.47768 10.5687C5.72251 10.4945 5.86588 10.2996 5.86638 10.0205C5.8684 8.84577 5.86739 7.67058 5.86689 6.49589L5.86739 6.49538ZM11.2123 6.4868C11.2123 6.42824 11.2123 6.36918 11.2123 6.31062C11.2123 5.19499 11.2138 4.07886 11.2108 2.96323C11.2098 2.63612 10.9922 2.4039 10.6929 2.3933C10.388 2.3827 10.1668 2.59523 10.1406 2.92689C10.135 3.00008 10.1361 3.07379 10.1361 3.14698C10.1361 5.3641 10.1371 7.58122 10.1381 9.79784C10.1381 9.90789 10.1345 10.0195 10.1522 10.1275C10.1663 10.2108 10.1971 10.2991 10.2451 10.3678C10.3804 10.5606 10.6166 10.6338 10.8281 10.5636C11.0765 10.4819 11.2103 10.2961 11.2108 10.0109C11.2128 8.83618 11.2118 7.66149 11.2118 6.4873L11.2123 6.4868ZM12.805 6.39694H12.804C12.804 7.16072 12.8035 7.925 12.804 8.68877C12.804 9.07697 13.022 9.32837 13.3507 9.32382C13.6788 9.31928 13.8832 9.08404 13.8848 8.7014C13.8868 8.16529 13.8853 7.62868 13.8853 7.09257C13.8853 6.08598 13.8853 5.0799 13.8843 4.07331C13.8843 3.77295 13.7601 3.57254 13.5359 3.49581C13.1442 3.36203 12.8095 3.61545 12.8065 4.06018C12.802 4.8386 12.805 5.61752 12.805 6.39593V6.39694ZM3.19493 6.38634H3.19241C3.19241 5.61499 3.19089 4.84365 3.19291 4.0723C3.19342 3.81686 3.1177 3.60636 2.86681 3.50035C2.4988 3.34537 2.12322 3.61545 2.12221 4.0405C2.11918 5.45093 2.1212 6.86137 2.1212 8.2718C2.1212 8.45555 2.11363 8.63981 2.12423 8.82255C2.13685 9.02851 2.24236 9.185 2.43015 9.27334C2.61743 9.36118 2.80572 9.34553 2.97332 9.22387C3.14092 9.10221 3.19695 8.92553 3.19594 8.72209C3.19291 7.94368 3.19493 7.16476 3.19493 6.38634Z" fill="var(--fill-0, #1A1A1A)"/>
</g>
<defs>
<clipPath id="clip0_0_29">
<rect width="16" height="16" fill="white"/>
</clipPath>
</defs>
</svg>
