<svg preserveAspectRatio="none" width="100%" height="100%" overflow="visible" style="display: block;" viewBox="0 0 16 16" fill="none" xmlns="http://www.w3.org/2000/svg">
<g id="/new-window">
<path id="Vector" d="M13.3 10V12.3H2.7V3.7H7V2H2C1.45 2 1 2.45 1 3V13C1 13.55 1.45 14 2 14H14C14.55 14 15 13.55 15 13V10H13.3ZM8.94 9.25L13.29 4.9V7.09C13.29 7.56 13.67 7.94 14.14 7.94C14.61 7.94 14.99 7.56 14.99 7.09V2H9.89999C9.42999 2 9.05 2.38 9.05 2.85C9.05 3.32 9.42999 3.7 9.89999 3.7H12.09L7.74001 8.05L8.94 9.25Z" fill="var(--fill-0, #1A1A1A)"/>
</g>
</svg>
