<svg preserveAspectRatio="none" width="100%" height="100%" overflow="visible" style="display: block;" viewBox="0 0 16 16" fill="none" xmlns="http://www.w3.org/2000/svg">
<g id="Icon">
<path id="Vector" d="M11 6.88C9.79 6.88 8.7 7.32999 7.83 8.03999C9.44 8.82999 10.69 10.26 11.22 12H16V11.88C16 9.12 13.76 6.88 11 6.88ZM5 8.88C2.24 8.88 0 11.12 0 13.88V14H10V13.88C10 11.12 7.76 8.88 5 8.88ZM5 7.75C6.1 7.75 7 6.85 7 5.75C7 4.65 6.1 3.75 5 3.75C3.9 3.75 3 4.65 3 5.75C3 6.85 3.9 7.75 5 7.75ZM11 5.75C12.1 5.75 13 4.85 13 3.75C13 2.65 12.1 1.75 11 1.75C9.9 1.75 9 2.65 9 3.75C9 4.85 9.9 5.75 11 5.75Z" fill="var(--fill-0, #1A1A1A)"/>
</g>
</svg>
