<svg preserveAspectRatio="none" width="100%" height="100%" overflow="visible" style="display: block;" viewBox="0 0 16 16" fill="none" xmlns="http://www.w3.org/2000/svg">
<g id="Icon">
<path id="Vector" d="M3.59 14.74L14.5 8.43999C14.67 8.33999 14.76 8.16999 14.76 7.98999C14.76 7.80999 14.67 7.63999 14.5 7.53999L3.59 1.25999C3.18 1.01999 2.69 1.41999 2.84 1.86999L3.88 4.94999L1.55 7.26999C1.35 7.46999 1.25 7.73999 1.25 7.99999C1.25 8.25999 1.35 8.52999 1.55 8.72999L3.88 11.05L2.84 14.13C2.69 14.58 3.17 14.98 3.59 14.74ZM10.25 7.99999L5.28 10.04L3.24 7.99999L5.28 5.95999L10.25 7.99999Z" fill="var(--fill-0, #1A1A1A)"/>
</g>
</svg>
