<svg preserveAspectRatio="none" width="100%" height="100%" overflow="visible" style="display: block;" viewBox="0 0 16 16" fill="none" xmlns="http://www.w3.org/2000/svg">
<g id="Icon">
<path id="Vector" fill-rule="evenodd" clip-rule="evenodd" d="M1 3.32557C1 2.04119 2.04119 1 3.32557 1H12.6279C13.9123 1 14.9535 2.04119 14.9535 3.32557V12.6278C14.9535 13.9122 13.9123 14.9534 12.6279 14.9534H3.32557C2.04119 14.9534 1 13.9122 1 12.6278V3.32557ZM7.94791 2.90869C8.26898 2.90869 8.52931 3.16899 8.52931 3.49009V8.33155C8.52931 8.65267 8.26898 8.91295 7.94791 8.91295C7.6268 8.91295 7.36652 8.65267 7.36652 8.33155V3.49009C7.36652 3.16899 7.6268 2.90869 7.94791 2.90869ZM5.42758 3.68431C5.74866 3.68431 6.00898 3.9446 6.00898 4.2657V7.75406C6.00898 8.07513 5.74866 8.33541 5.42758 8.33541C5.10649 8.33541 4.84619 8.07513 4.84619 7.75406V4.2657C4.84619 3.9446 5.10649 3.68431 5.42758 3.68431ZM10.4672 3.68431C10.7883 3.68431 11.0486 3.9446 11.0486 4.2657V7.75406C11.0486 8.07513 10.7883 8.33541 10.4672 8.33541C10.1461 8.33541 9.88577 8.07513 9.88577 7.75406V4.2657C9.88577 3.9446 10.1461 3.68431 10.4672 3.68431ZM5.85654 10.1614C7.24603 10.3705 8.65901 10.3705 10.0485 10.1614C10.4651 10.0987 10.7819 10.5291 10.604 10.9109C9.55891 13.1535 6.34617 13.1535 5.30108 10.9109C5.12312 10.5291 5.43997 10.0987 5.85654 10.1614Z" fill="var(--fill-0, #1A1A1A)"/>
</g>
</svg>
