<svg width="16" height="16" viewBox="0 0 16 16" fill="none" xmlns="http://www.w3.org/2000/svg">
<path d="M8.25 1.9C6.44 1.9 4.82 2.71 3.7 3.97V2.4C3.7 1.93 3.32 1.55 2.85 1.55C2.38 1.55 2 1.93 2 2.4V7H6.6C7.07 7 7.45 6.62 7.45 6.15C7.45 5.68 7.07 5.3 6.6 5.3H4.81C5.61 4.27 6.85 3.6 8.25 3.6C10.68 3.6 12.65 5.57 12.65 8C12.65 10.43 10.68 12.4 8.25 12.4C7.03 12.4 5.93 11.9 5.13 11.1L3.93 12.3C5.03 13.41 6.56 14.1 8.25 14.1C11.61 14.1 14.35 11.36 14.35 8C14.35 4.64 11.61 1.9 8.25 1.9Z" fill="#1A1A1A"/>
</svg>
