<svg preserveAspectRatio="none" width="100%" height="100%" overflow="visible" style="display: block;" viewBox="0 0 16 16" fill="none" xmlns="http://www.w3.org/2000/svg">
<g id="search">
<path id="Vector" d="M14.5 13.3L11.87 10.67C12.81 9.4 13.25 7.74 12.86 5.97C12.39 3.84 10.68 2.11 8.55 1.65C4.37 0.74 0.730003 4.38 1.65 8.56C2.12 10.69 3.84 12.41 5.98 12.87C7.75 13.26 9.40999 12.82 10.68 11.88L13.31 14.51C13.64 14.84 14.18 14.84 14.51 14.51C14.84 14.18 14.84 13.64 14.51 13.31L14.5 13.3ZM3.2 7.25C3.2 5.02 5.02 3.2 7.25 3.2C9.48 3.2 11.3 5.02 11.3 7.25C11.3 9.48 9.48 11.3 7.25 11.3C5.02 11.3 3.2 9.48 3.2 7.25Z" fill="var(--fill-0, #1A1A1A)"/>
</g>
</svg>
