<svg preserveAspectRatio="none" width="100%" height="100%" overflow="visible" style="display: block;" viewBox="0 0 16 16" fill="none" xmlns="http://www.w3.org/2000/svg">
<g id="Icon">
<path id="Vector" fill-rule="evenodd" clip-rule="evenodd" d="M14.9 8.49001L14.11 8.06C13.24 7.58 12.98 6.45 13.56 5.63L14.08 4.89999C14.21 4.70999 14.21 4.46 14.06 4.28L13.15 3.14C13.01 2.96 12.76 2.9 12.55 2.98L11.72 3.32001C10.8 3.70001 9.75 3.20001 9.48 2.24001L9.23 1.38C9.17 1.16 8.96 1.00999 8.73 1.00999H7.27C7.04 1.00999 6.84 1.16 6.77 1.38L6.52 2.24001C6.24 3.20001 5.2 3.70001 4.28 3.32001L3.45 2.98C3.24 2.89 2.99 2.95 2.85 3.14L1.94 4.28C1.8 4.46 1.79 4.70999 1.92 4.89999L2.44 5.63C3.02 6.44 2.76 7.58 1.89 8.06L1.1 8.49001C0.899997 8.60001 0.789997 8.83 0.849997 9.06L1.18 10.49C1.23 10.71 1.43 10.88 1.66 10.89L2.56 10.94C3.55 11 4.28 11.9 4.11 12.89L3.96 13.78C3.92 14.01 4.04 14.23 4.25 14.33L5.57 14.96C5.78 15.06 6.03 15.01 6.18 14.84L6.78 14.17C7.44 13.43 8.61 13.43 9.27 14.17L9.87 14.84C10.02 15.01 10.27 15.06 10.48 14.96L11.8 14.33C12.01 14.23 12.12 14 12.09 13.78L11.94 12.89C11.77 11.91 12.5 11 13.49 10.94L14.39 10.89C14.62 10.88 14.81 10.71 14.87 10.49L15.2 9.06C15.25 8.84 15.15 8.60001 14.95 8.49001H14.9ZM8 10.85C6.52 10.85 5.32 9.65 5.32 8.17C5.32 6.69 6.52 5.49001 8 5.49001C9.48 5.49001 10.68 6.69 10.68 8.17C10.68 9.65 9.48 10.85 8 10.85Z" fill="var(--fill-0, #1A1A1A)"/>
</g>
</svg>
