<svg width="16" height="16" viewBox="0 0 16 16" fill="none" xmlns="http://www.w3.org/2000/svg">
<path d="M15.7775 5.68248L12.7575 4.6725C12.0875 4.4525 11.5675 3.92249 11.3375 3.25249L10.3275 0.2325C10.2275 -0.0775 9.7875 -0.0775 9.6875 0.2325L8.6775 3.25249C8.4575 3.92249 7.9275 4.4525 7.2575 4.6725L4.2375 5.68248C3.9275 5.78248 3.9275 6.2225 4.2375 6.3225L7.2575 7.33248C7.9275 7.55248 8.4575 8.08249 8.6775 8.75249L9.6875 11.7725C9.7875 12.0825 10.2275 12.0825 10.3275 11.7725L11.3375 8.75249C11.5575 8.08249 12.0875 7.55248 12.7575 7.33248L15.7775 6.3225C16.0875 6.2225 16.0875 5.78248 15.7775 5.68248ZM7.2875 11.9525L5.8775 11.4825C5.2375 11.2725 4.7375 10.7725 4.5275 10.1325L4.0575 8.72249C3.9575 8.43249 3.5475 8.43249 3.4475 8.72249C3.3075 9.13249 3.1375 9.64249 2.9775 10.1325C2.7675 10.7725 2.2675 11.2725 1.6275 11.4825L0.2175 11.9525C-0.0725 12.0525 -0.0725 12.4625 0.2175 12.5625C0.6275 12.7025 1.1375 12.8725 1.6275 13.0325C2.2675 13.2425 2.7675 13.7425 2.9775 14.3825C3.1375 14.8725 3.3075 15.3825 3.4475 15.7925C3.5475 16.0825 3.9575 16.0825 4.0575 15.7925L4.5275 14.3825C4.7375 13.7425 5.2375 13.2425 5.8775 13.0325C6.3675 12.8725 6.8775 12.7025 7.2875 12.5625C7.5775 12.4625 7.5775 12.0525 7.2875 11.9525Z" fill="#1A1A1A"/>
</svg>
